<?xml version="1.0" encoding="UTF-8"?>
<!DOCTYPE svg PUBLIC "-//W3C//DTD SVG 1.1//EN" "http://www.w3.org/Graphics/SVG/1.1/DTD/svg11.dtd">
<svg xmlns="http://www.w3.org/2000/svg" version="1.1" width="500px" height="500px" style="shape-rendering:geometricPrecision; text-rendering:geometricPrecision; image-rendering:optimizeQuality; fill-rule:evenodd; clip-rule:evenodd" xmlns:xlink="http://www.w3.org/1999/xlink">
<g><path style="opacity:0.901" fill="#242424" d="M 225.5,151.5 C 225.459,149.255 224.625,148.588 223,149.5C 221.513,148.747 221.346,147.914 222.5,147C 221.552,146.517 220.552,146.351 219.5,146.5C 233.841,141.906 246.007,133.906 256,122.5C 259.696,115.631 259.196,109.131 254.5,103C 239.295,93.3569 222.629,87.6902 204.5,86C 180.336,81.6404 158.003,85.9737 137.5,99C 135,101.5 132.5,104 130,106.5C 129.333,105.5 129.333,104.5 130,103.5C 141.129,91.2268 154.962,84.0601 171.5,82C 195.717,79.525 219.384,81.8583 242.5,89C 247.758,91.0934 252.758,93.76 257.5,97C 267.418,107.699 267.918,118.866 259,130.5C 249.804,140.679 238.637,147.679 225.5,151.5 Z"/></g>
<g><path style="opacity:0.942" fill="#181818" d="M 219.5,146.5 C 220.552,146.351 221.552,146.517 222.5,147C 221.346,147.914 221.513,148.747 223,149.5C 224.625,148.588 225.459,149.255 225.5,151.5C 220.494,153.928 215.161,155.762 209.5,157C 220.144,160.485 230.477,164.819 240.5,170C 258.846,181.539 268.846,198.039 270.5,219.5C 269.686,217.369 269.186,215.036 269,212.5C 266.563,209.851 265.23,210.517 265,214.5C 262.995,213.968 261.829,214.968 261.5,217.5C 256.692,193.842 242.692,178.008 219.5,170C 211.328,167.373 202.994,165.54 194.5,164.5C 193.903,163.861 193.07,163.528 192,163.5C 190.624,163.684 189.791,164.351 189.5,165.5C 187.981,171.573 186.147,177.573 184,183.5C 180.561,185.192 178.395,184.192 177.5,180.5C 178.554,175.403 179.887,170.403 181.5,165.5C 182.267,164.828 182.934,163.995 183.5,163C 179.514,162.501 175.514,162.334 171.5,162.5C 169.313,160.718 168.98,158.552 170.5,156C 175.398,154.695 180.398,153.862 185.5,153.5C 187.5,146.833 189.5,140.167 191.5,133.5C 197.113,132.079 199.28,134.079 198,139.5C 196.693,143.283 195.526,147.116 194.5,151C 194.833,151.5 195.167,152 195.5,152.5C 203.513,150.49 211.513,148.49 219.5,146.5 Z"/></g>
<g><path style="opacity:0.131" fill="#9d9f9f" d="M 171.5,162.5 C 175.514,162.334 179.514,162.501 183.5,163C 182.934,163.995 182.267,164.828 181.5,165.5C 178.452,163.881 175.119,162.881 171.5,162.5 Z"/></g>
<g><path style="opacity:0.012" fill="#dddddd" d="M 194.5,164.5 C 192.708,164.366 191.042,164.699 189.5,165.5C 191.042,164.699 192.708,164.366 194.5,164.5 Z"/></g>
<g><path style="opacity:0.973" fill="#a55c50" d="M 196.5,186.5 C 200.524,187.038 204.524,187.705 208.5,188.5C 208.5,182.5 208.5,176.5 208.5,170.5C 202.839,170.093 197.172,169.76 191.5,169.5C 191.97,168.307 192.97,167.64 194.5,167.5C 199.835,167.885 205.002,168.885 210,170.5C 210.667,176.833 210.667,183.167 210,189.5C 205.197,190.07 200.697,189.07 196.5,186.5 Z"/></g>
<g><path style="opacity:1" fill="#9e2f20" d="M 191.5,169.5 C 197.172,169.76 202.839,170.093 208.5,170.5C 208.5,176.5 208.5,182.5 208.5,188.5C 204.524,187.705 200.524,187.038 196.5,186.5C 194.468,185.093 192.301,183.76 190,182.5C 190.321,178.19 190.821,173.857 191.5,169.5 Z"/></g>
<g><path style="opacity:0.992" fill="#a1574c" d="M 191.5,169.5 C 190.821,173.857 190.321,178.19 190,182.5C 192.301,183.76 194.468,185.093 196.5,186.5C 193.426,186.127 190.426,185.461 187.5,184.5C 187.338,182.473 187.505,180.473 188,178.5C 188.861,175.269 190.028,172.269 191.5,169.5 Z"/></g>
<g><path style="opacity:0.942" fill="#191919" d="M 357.5,224.5 C 359.435,223.85 361.435,223.517 363.5,223.5C 364.725,224.152 365.392,225.319 365.5,227C 364.031,231.996 363.031,237.163 362.5,242.5C 362.915,244.909 363.582,247.242 364.5,249.5C 366.858,247.976 368.691,245.976 370,243.5C 373.688,236.773 377.188,229.939 380.5,223C 384.508,221.584 386.841,222.918 387.5,227C 378.173,260.139 368.173,292.972 357.5,325.5C 356.63,323.364 355.297,321.531 353.5,320C 354.167,319.333 354.833,318.667 355.5,318C 353.718,317.878 352.052,318.378 350.5,319.5C 357.148,298.563 363.314,277.563 369,256.5C 362.156,259.315 357.489,257.315 355,250.5C 350.291,256.77 344.124,258.936 336.5,257C 332.508,253.427 330.342,248.927 330,243.5C 327.578,249.252 323.744,253.752 318.5,257C 311.06,259.53 306.56,257.03 305,249.5C 303.949,230.259 307.449,211.925 315.5,194.5C 319.197,193.163 321.53,194.497 322.5,198.5C 317.921,212.15 314.921,226.15 313.5,240.5C 312.507,250.96 314.674,251.96 320,243.5C 325.432,233.875 330.099,223.875 334,213.5C 339.084,196.174 344.584,179.008 350.5,162C 352.902,161.186 355.235,161.353 357.5,162.5C 357.987,163.446 358.32,164.446 358.5,165.5C 350.891,187.35 344.724,209.683 340,232.5C 339.333,237.5 339.333,242.5 340,247.5C 341.549,250.003 343.216,250.003 345,247.5C 350.225,240.382 354.391,232.716 357.5,224.5 Z"/></g>
<g><path style="opacity:0.996" fill="#ae685a" d="M 238.5,187.5 C 243.131,188.798 246.131,191.798 247.5,196.5C 244.744,194.98 242.41,192.98 240.5,190.5C 238.498,192.067 236.498,193.733 234.5,195.5C 234.5,194.833 234.5,194.167 234.5,193.5C 235.167,193.5 235.5,193.167 235.5,192.5C 236.338,192.158 236.672,191.492 236.5,190.5C 237.167,190.5 237.5,190.167 237.5,189.5C 238.338,189.158 238.672,188.492 238.5,187.5 Z"/></g>
<g><path style="opacity:1" fill="#aa5e51" d="M 234.5,182.5 C 228.434,180.406 222.768,177.573 217.5,174C 216.207,173.51 214.873,173.343 213.5,173.5C 213.334,179.176 213.501,184.843 214,190.5C 219.017,193.592 224.517,195.259 230.5,195.5C 232.71,192.852 234.71,189.852 236.5,186.5C 236.154,185.151 235.821,183.817 235.5,182.5C 237.727,183.401 238.727,185.067 238.5,187.5C 237.662,187.842 237.328,188.508 237.5,189.5C 236.833,189.5 236.5,189.833 236.5,190.5C 235.662,190.842 235.328,191.508 235.5,192.5C 234.833,192.5 234.5,192.833 234.5,193.5C 233.167,194.167 233.167,194.833 234.5,195.5C 233.286,198.204 233.286,200.871 234.5,203.5C 232.386,202.64 231.22,200.973 231,198.5C 230.439,199.022 229.772,199.355 229,199.5C 223.523,196.285 217.69,193.952 211.5,192.5C 211.435,185.476 211.768,178.476 212.5,171.5C 220.962,173.064 228.295,176.731 234.5,182.5 Z"/></g>
<g><path style="opacity:1" fill="#9e2f1e" d="M 234.5,182.5 C 234.833,182.5 235.167,182.5 235.5,182.5C 235.821,183.817 236.154,185.151 236.5,186.5C 234.71,189.852 232.71,192.852 230.5,195.5C 224.517,195.259 219.017,193.592 214,190.5C 213.501,184.843 213.334,179.176 213.5,173.5C 214.873,173.343 216.207,173.51 217.5,174C 222.768,177.573 228.434,180.406 234.5,182.5 Z"/></g>
<g><path style="opacity:1" fill="#9e3625" d="M 247.5,196.5 C 251.372,200.132 253.039,204.465 252.5,209.5C 251.833,209.5 251.5,209.833 251.5,210.5C 250.508,210.328 249.842,210.662 249.5,211.5C 249.167,211.5 248.833,211.5 248.5,211.5C 245.763,211.599 243.096,211.265 240.5,210.5C 238.529,208.192 236.529,205.858 234.5,203.5C 233.286,200.871 233.286,198.204 234.5,195.5C 236.498,193.733 238.498,192.067 240.5,190.5C 242.41,192.98 244.744,194.98 247.5,196.5 Z"/></g>
<g><path style="opacity:0.298" fill="#8e898a" d="M 232.5,208.5 C 232.158,207.662 231.492,207.328 230.5,207.5C 230.811,206.522 231.478,205.855 232.5,205.5C 233.776,206.614 233.776,207.614 232.5,208.5 Z"/></g>
<g><path style="opacity:0.889" fill="#272727" d="M 288.5,213.5 C 292.483,215.145 293.483,217.979 291.5,222C 286.502,223.33 284.336,221.496 285,216.5C 286.145,215.364 287.312,214.364 288.5,213.5 Z"/></g>
<g><path style="opacity:1" fill="#a13727" d="M 251.5,211.5 C 252.5,211.5 253.5,211.5 254.5,211.5C 254.129,215.696 255.129,219.363 257.5,222.5C 258.833,225.167 258.833,227.833 257.5,230.5C 255.167,230.5 252.833,230.5 250.5,230.5C 250.109,226.373 249.109,222.373 247.5,218.5C 248.588,215.986 249.921,213.653 251.5,211.5 Z"/></g>
<g><path style="opacity:0.639" fill="#ac6962" d="M 252.5,209.5 C 253.496,209.414 254.329,209.748 255,210.5C 256.772,214.313 257.605,218.313 257.5,222.5C 255.129,219.363 254.129,215.696 254.5,211.5C 253.5,211.5 252.5,211.5 251.5,211.5C 251.5,211.167 251.5,210.833 251.5,210.5C 252.167,210.5 252.5,210.167 252.5,209.5 Z"/></g>
<g><path style="opacity:0.84" fill="#3a3a3a" d="M 230.5,207.5 C 231.492,207.328 232.158,207.662 232.5,208.5C 227.919,218.003 222.586,227.003 216.5,235.5C 216.657,234.127 216.49,232.793 216,231.5C 215.23,232.598 214.397,232.598 213.5,231.5C 219.167,223.5 224.833,215.5 230.5,207.5 Z"/></g>
<g><path style="opacity:0.951" fill="#171717" d="M 270.5,219.5 C 272.086,233.751 270.086,247.418 264.5,260.5C 262.345,260.628 260.345,260.128 258.5,259C 258.833,258.667 259.167,258.333 259.5,258C 258.619,257.292 257.953,256.458 257.5,255.5C 258.234,254.292 258.567,252.959 258.5,251.5C 260.9,240.306 261.9,228.973 261.5,217.5C 261.829,214.968 262.995,213.968 265,214.5C 265.23,210.517 266.563,209.851 269,212.5C 269.186,215.036 269.686,217.369 270.5,219.5 Z"/></g>
<g><path style="opacity:0.096" fill="#848484" d="M 363.5,223.5 C 361.435,223.517 359.435,223.85 357.5,224.5C 358.134,223.053 359.301,222.387 361,222.5C 362.07,222.528 362.903,222.861 363.5,223.5 Z"/></g>
<g><path style="opacity:0.988" fill="#a55a4d" d="M 240.5,210.5 C 243.096,211.265 245.763,211.599 248.5,211.5C 248.833,212.833 249.167,212.833 249.5,211.5C 250.167,211.5 250.833,211.5 251.5,211.5C 249.921,213.653 248.588,215.986 247.5,218.5C 249.109,222.373 250.109,226.373 250.5,230.5C 252.833,230.5 255.167,230.5 257.5,230.5C 256.5,231.167 255.5,231.833 254.5,232.5C 252.833,232.5 251.167,232.5 249.5,232.5C 248.532,227.134 246.865,221.968 244.5,217C 245.884,215.043 245.217,214.043 242.5,214C 241.695,212.887 241.028,211.721 240.5,210.5 Z"/></g>
<g><path style="opacity:0.922" fill="#232323" d="M 283.5,228.5 C 286.571,227.925 288.571,229.091 289.5,232C 287.055,237.979 285.888,244.146 286,250.5C 289.685,246.417 293.352,242.417 297,238.5C 298.011,239.337 299.178,239.67 300.5,239.5C 299.581,246.947 295.914,252.78 289.5,257C 282.04,259.039 278.04,256.206 277.5,248.5C 278.272,241.401 280.272,234.735 283.5,228.5 Z"/></g>
<g><path style="opacity:0.067" fill="#9e9e9e" d="M 213.5,231.5 C 213.573,233.027 212.906,234.027 211.5,234.5C 211.427,232.973 212.094,231.973 213.5,231.5 Z"/></g>
<g><path style="opacity:0.9" fill="#313131" d="M 34.5,256.5 C 34.0913,253.134 32.4246,252.134 29.5,253.5C 51.841,236.088 77.1743,224.921 105.5,220C 114.727,217.901 124.06,216.901 133.5,217C 105.586,221.613 78.9192,230.279 53.5,243C 46.7859,247.018 40.4525,251.518 34.5,256.5 Z"/></g>
<g><path style="opacity:0.687" fill="#313131" d="M 213.5,231.5 C 214.397,232.598 215.23,232.598 216,231.5C 216.49,232.793 216.657,234.127 216.5,235.5C 214.94,238.913 214.107,242.579 214,246.5C 210.333,250.5 206.667,250.5 203,246.5C 202.333,244.5 202.333,242.5 203,240.5C 205.926,238.573 208.76,236.573 211.5,234.5C 212.906,234.027 213.573,233.027 213.5,231.5 Z M 207.5,240.5 C 210.084,241.048 211.084,242.715 210.5,245.5C 209.167,245.5 207.833,245.5 206.5,245.5C 206.366,243.708 206.699,242.042 207.5,240.5 Z"/></g>
<g><path style="opacity:0.91" fill="#9d5448" d="M 254.5,232.5 C 255.833,232.5 257.167,232.5 258.5,232.5C 258.621,238.631 257.954,244.631 256.5,250.5C 252.549,252.188 250.549,250.855 250.5,246.5C 250.176,242.445 250.509,238.445 251.5,234.5C 252.739,234.058 253.739,233.391 254.5,232.5 Z"/></g>
<g><path style="opacity:0.996" fill="#9a3022" d="M 255.5,234.5 C 256.755,239.057 256.588,243.723 255,248.5C 253.989,249.337 252.822,249.67 251.5,249.5C 251.5,244.833 251.5,240.167 251.5,235.5C 253.099,235.768 254.432,235.434 255.5,234.5 Z"/></g>
<g><path style="opacity:0.11" fill="#eeaea4" d="M 250.5,246.5 C 250.549,250.855 252.549,252.188 256.5,250.5C 255.976,252.306 255.309,253.972 254.5,255.5C 254.5,254.5 254.5,253.5 254.5,252.5C 252.833,252.5 251.167,252.5 249.5,252.5C 249.205,250.265 249.539,248.265 250.5,246.5 Z"/></g>
<g><path style="opacity:0.059" fill="#a8a8a9" d="M 258.5,251.5 C 258.567,252.959 258.234,254.292 257.5,255.5C 257.167,255.5 256.833,255.5 256.5,255.5C 256.66,253.847 257.326,252.514 258.5,251.5 Z"/></g>
<g><path style="opacity:1" fill="#9f524a" d="M 249.5,252.5 C 251.167,252.5 252.833,252.5 254.5,252.5C 254.5,253.5 254.5,254.5 254.5,255.5C 254.267,258.542 253.267,261.208 251.5,263.5C 251.571,260.689 252.238,258.022 253.5,255.5C 253.167,254.833 252.833,254.167 252.5,253.5C 250.491,256.196 248.491,258.863 246.5,261.5C 247.304,258.421 248.304,255.421 249.5,252.5 Z"/></g>
<g><path style="opacity:1" fill="#983221" d="M 251.5,263.5 C 251.5,263.833 251.5,264.167 251.5,264.5C 249.958,265.301 248.292,265.634 246.5,265.5C 246.5,264.167 246.5,262.833 246.5,261.5C 248.491,258.863 250.491,256.196 252.5,253.5C 252.833,254.167 253.167,254.833 253.5,255.5C 252.238,258.022 251.571,260.689 251.5,263.5 Z"/></g>
<g><path style="opacity:0.871" fill="#1b1b1b" d="M 34.5,256.5 C 9.84824,277.773 3.34824,303.773 15,334.5C 21.5502,345.715 31.0502,353.215 43.5,357C 49.5474,358.831 55.5474,360.331 61.5,361.5C 58.9158,361.569 56.9158,362.735 55.5,365C 56.5,365.333 57.5,365.667 58.5,366C 56.8807,366.236 55.8807,367.069 55.5,368.5C 15.2507,360.423 -2.24932,335.757 3,294.5C 7.30046,277.898 16.1338,264.231 29.5,253.5C 32.4246,252.134 34.0913,253.134 34.5,256.5 Z"/></g>
<g><path style="opacity:0.612" fill="#b88375" d="M 246.5,261.5 C 246.5,262.833 246.5,264.167 246.5,265.5C 248.292,265.634 249.958,265.301 251.5,264.5C 251.586,265.496 251.252,266.329 250.5,267C 249.167,267.333 247.833,267.667 246.5,268C 248.495,268.924 248.828,270.09 247.5,271.5C 246.817,269.824 245.483,269.157 243.5,269.5C 244.715,266.846 245.715,264.18 246.5,261.5 Z"/></g>
<g><path style="opacity:1" fill="#a4584d" d="M 243.5,269.5 C 245.483,269.157 246.817,269.824 247.5,271.5C 246.872,274.09 245.705,276.423 244,278.5C 242.989,279.337 241.822,279.67 240.5,279.5C 240.339,284.866 237.673,287.866 232.5,288.5C 231.972,287.153 231.805,285.819 232,284.5C 234,282.5 236,280.5 238,278.5C 238.333,278.833 238.667,279.167 239,279.5C 238.536,275.418 240.036,272.085 243.5,269.5 Z"/></g>
<g><path style="opacity:0.784" fill="#a86258" d="M 232.5,288.5 C 233.303,289.423 233.47,290.423 233,291.5C 231.5,293 230,294.5 228.5,296C 225.35,296.238 224.184,294.738 225,291.5C 226.767,288.156 229.267,287.156 232.5,288.5 Z"/></g>
<g><path style="opacity:0.944" fill="#1b1b1b" d="M 256.5,255.5 C 256.833,255.5 257.167,255.5 257.5,255.5C 257.953,256.458 258.619,257.292 259.5,258C 259.167,258.333 258.833,258.667 258.5,259C 260.345,260.128 262.345,260.628 264.5,260.5C 260.213,275.408 253.047,288.742 243,300.5C 207.814,337.51 164.98,359.843 114.5,367.5C 116.265,366.539 118.265,366.205 120.5,366.5C 118.959,363.303 119.959,360.969 123.5,359.5C 121.604,358.534 119.604,358.201 117.5,358.5C 155.396,350.481 189.396,334.315 219.5,310C 236.702,295.083 249.035,276.916 256.5,255.5 Z"/></g>
<g><path style="opacity:0.929" fill="#1c1c1c" d="M 357.5,325.5 C 354.922,335.151 351.922,344.651 348.5,354C 393.835,355.21 439.168,356.377 484.5,357.5C 484.5,358.5 484.5,359.5 484.5,360.5C 438.498,361.474 392.498,362.474 346.5,363.5C 341.675,381.986 330.675,395.32 313.5,403.5C 312.5,403.5 311.5,403.5 310.5,403.5C 310.004,400.747 310.004,398.081 310.5,395.5C 316.077,392.26 321.077,388.26 325.5,383.5C 327.5,383.5 328.5,382.5 328.5,380.5C 330.167,377.833 331.833,375.167 333.5,372.5C 336.155,370.965 337.155,368.965 336.5,366.5C 336.5,366.167 336.5,365.833 336.5,365.5C 337.404,364.791 337.737,363.791 337.5,362.5C 324.323,362.171 311.323,362.505 298.5,363.5C 282.167,363.5 265.833,363.5 249.5,363.5C 247.654,363.778 246.32,363.111 245.5,361.5C 246.001,359.164 247.001,357.164 248.5,355.5C 279.076,353.686 309.743,353.019 340.5,353.5C 343.632,342.103 346.966,330.77 350.5,319.5C 352.052,318.378 353.718,317.878 355.5,318C 354.833,318.667 354.167,319.333 353.5,320C 355.297,321.531 356.63,323.364 357.5,325.5 Z"/></g>
<g><path style="opacity:0.998" fill="#a65547" d="M 464.5,330.5 C 460.828,329.664 457.328,328.331 454,326.5C 453.833,326.833 453.667,327.167 453.5,327.5C 454.641,328.425 454.641,329.259 453.5,330C 457.139,330.266 460.139,331.766 462.5,334.5C 461.873,335.417 461.539,336.417 461.5,337.5C 459.424,332.129 455.757,330.629 450.5,333C 446.832,336.517 446.499,340.35 449.5,344.5C 448.85,344.196 448.183,343.863 447.5,343.5C 445.319,337.342 446.986,332.675 452.5,329.5C 450.833,328.167 449.167,328.167 447.5,329.5C 444.743,332.348 443.076,335.681 442.5,339.5C 442.649,341.32 443.316,342.82 444.5,344C 443.944,344.383 443.611,344.883 443.5,345.5C 442.883,345.389 442.383,345.056 442,344.5C 441.294,340.113 441.46,335.78 442.5,331.5C 446.442,326.045 451.776,324.212 458.5,326C 461.177,326.814 463.177,328.314 464.5,330.5 Z"/></g>
<g><path style="opacity:0.996" fill="#ac655a" d="M 392.5,330.5 C 391.393,329.008 389.893,328.008 388,327.5C 386.301,327.387 385.134,328.053 384.5,329.5C 383.542,329.953 382.708,330.619 382,331.5C 380.337,335.811 378.503,339.811 376.5,343.5C 377.957,337.293 380.29,331.46 383.5,326C 388.207,324.422 391.207,325.922 392.5,330.5 Z"/></g>
<g><path style="opacity:1" fill="#9a3120" d="M 406.5,343.5 C 406.628,345.09 407.295,346.423 408.5,347.5C 410.747,346.626 413.08,346.292 415.5,346.5C 415.5,347.5 415.5,348.5 415.5,349.5C 411.434,349.693 407.434,349.36 403.5,348.5C 401.716,341.649 401.05,334.649 401.5,327.5C 402.833,327.5 404.167,327.5 405.5,327.5C 405.179,333.026 405.512,338.36 406.5,343.5 Z"/></g>
<g><path style="opacity:0.004" fill="#fef8f6" d="M 441.5,331.5 C 440.081,332.451 438.415,332.784 436.5,332.5C 436.5,336.833 436.5,341.167 436.5,345.5C 435.514,341.03 435.181,336.363 435.5,331.5C 437.5,331.5 439.5,331.5 441.5,331.5 Z"/></g>
<g><path style="opacity:1" fill="#9a3223" d="M 384.5,329.5 C 385.254,332.078 385.254,334.744 384.5,337.5C 383.566,338.568 383.232,339.901 383.5,341.5C 385.833,341.5 388.167,341.5 390.5,341.5C 391.833,341.5 393.167,341.5 394.5,341.5C 394.33,342.822 394.663,343.989 395.5,345C 390.394,344.886 385.727,345.72 381.5,347.5C 380.89,348.391 380.557,349.391 380.5,350.5C 378.833,350.5 377.167,350.5 375.5,350.5C 375.993,348.194 376.326,345.861 376.5,343.5C 378.503,339.811 380.337,335.811 382,331.5C 382.708,330.619 383.542,329.953 384.5,329.5 Z"/></g>
<g><path style="opacity:1" fill="#9d3020" d="M 420.5,325.5 C 421.434,326.568 421.768,327.901 421.5,329.5C 420.676,333.312 420.176,337.312 420,341.5C 419.02,343.059 418.187,344.726 417.5,346.5C 416.167,340.167 416.167,333.833 417.5,327.5C 418.739,327.058 419.739,326.391 420.5,325.5 Z"/></g>
<g><path style="opacity:0.482" fill="#944d46" d="M 406.5,343.5 C 405.512,338.36 405.179,333.026 405.5,327.5C 404.167,327.5 402.833,327.5 401.5,327.5C 401.05,334.649 401.716,341.649 403.5,348.5C 402.542,348.047 401.708,347.381 401,346.5C 400.5,339.508 400.334,332.508 400.5,325.5C 402.5,325.5 404.5,325.5 406.5,325.5C 406.5,331.5 406.5,337.5 406.5,343.5 Z"/></g>
<g><path style="opacity:0.996" fill="#a5554b" d="M 482.5,336.5 C 482.291,341.016 482.291,345.683 482.5,350.5C 483.5,350.5 484.5,350.5 485.5,350.5C 485.5,345.833 485.5,341.167 485.5,336.5C 488.23,336.527 490.73,335.86 493,334.5C 496.687,334.859 497.187,336.192 494.5,338.5C 497.058,340.769 496.558,342.435 493,343.5C 490.966,342.138 488.799,341.138 486.5,340.5C 486.665,344.182 486.499,347.848 486,351.5C 481.984,352.664 480.15,350.997 480.5,346.5C 482.176,339.844 480.342,338.844 475,343.5C 470.852,341.936 470.686,340.27 474.5,338.5C 473.5,337.833 472.5,337.167 471.5,336.5C 471.709,335.914 472.043,335.414 472.5,335C 475.985,334.674 479.318,335.174 482.5,336.5 Z"/></g>
<g><path style="opacity:0.118" fill="#efbdb6" d="M 384.5,337.5 C 384.5,338.5 384.5,339.5 384.5,340.5C 386.415,340.784 388.081,340.451 389.5,339.5C 390.338,339.842 390.672,340.508 390.5,341.5C 388.167,341.5 385.833,341.5 383.5,341.5C 383.232,339.901 383.566,338.568 384.5,337.5 Z"/></g>
<g><path style="opacity:1" fill="#a24637" d="M 442.5,331.5 C 442.167,331.5 441.833,331.5 441.5,331.5C 439.5,331.5 437.5,331.5 435.5,331.5C 435.181,336.363 435.514,341.03 436.5,345.5C 437.5,345.5 438.5,345.5 439.5,345.5C 439.5,347.5 439.5,349.5 439.5,351.5C 435.69,351.621 432.523,350.288 430,347.5C 429.501,342.511 429.334,337.511 429.5,332.5C 423.5,333.833 421.167,331.5 422.5,325.5C 428.842,325.334 435.175,325.5 441.5,326C 442.406,327.699 442.739,329.533 442.5,331.5 Z"/></g>
<g><path style="opacity:1" fill="#9c4132" d="M 392.5,330.5 C 395.649,337.154 397.983,344.154 399.5,351.5C 395.221,352.546 392.555,351.046 391.5,347C 388.076,346.253 384.743,346.42 381.5,347.5C 385.727,345.72 390.394,344.886 395.5,345C 394.663,343.989 394.33,342.822 394.5,341.5C 393.167,341.5 391.833,341.5 390.5,341.5C 390.672,340.508 390.338,339.842 389.5,339.5C 388.577,337.233 387.744,334.9 387,332.5C 386.626,334.491 385.793,336.158 384.5,337.5C 385.254,334.744 385.254,332.078 384.5,329.5C 385.134,328.053 386.301,327.387 388,327.5C 389.893,328.008 391.393,329.008 392.5,330.5 Z"/></g>
<g><path style="opacity:1" fill="#a24f43" d="M 420.5,325.5 C 419.739,326.391 418.739,327.058 417.5,327.5C 416.167,333.833 416.167,340.167 417.5,346.5C 418.187,344.726 419.02,343.059 420,341.5C 420.176,337.312 420.676,333.312 421.5,329.5C 421.666,334.844 421.499,340.177 421,345.5C 418.727,349.552 415.227,351.886 410.5,352.5C 407.651,351.9 405.318,350.567 403.5,348.5C 407.434,349.36 411.434,349.693 415.5,349.5C 415.5,348.5 415.5,347.5 415.5,346.5C 413.08,346.292 410.747,346.626 408.5,347.5C 407.295,346.423 406.628,345.09 406.5,343.5C 409.82,346.465 412.653,346.132 415,342.5C 415.499,336.843 415.666,331.176 415.5,325.5C 417.167,325.5 418.833,325.5 420.5,325.5 Z"/></g>
<g><path style="opacity:0.647" fill="#b77770" d="M 376.5,343.5 C 376.326,345.861 375.993,348.194 375.5,350.5C 377.167,350.5 378.833,350.5 380.5,350.5C 378.153,351.895 375.819,351.728 373.5,350C 374.422,347.706 375.422,345.539 376.5,343.5 Z"/></g>
<g><path style="opacity:0.933" fill="#a14132" d="M 464.5,330.5 C 469.922,337.24 469.256,343.574 462.5,349.5C 459.833,350.5 457.167,351.5 454.5,352.5C 451.803,351.768 449.136,350.934 446.5,350C 444.859,348.871 443.859,347.371 443.5,345.5C 443.611,344.883 443.944,344.383 444.5,344C 443.316,342.82 442.649,341.32 442.5,339.5C 443.076,335.681 444.743,332.348 447.5,329.5C 449.167,328.167 450.833,328.167 452.5,329.5C 446.986,332.675 445.319,337.342 447.5,343.5C 448.183,343.863 448.85,344.196 449.5,344.5C 456.463,347.199 460.463,344.866 461.5,337.5C 461.539,336.417 461.873,335.417 462.5,334.5C 460.139,331.766 457.139,330.266 453.5,330C 454.641,329.259 454.641,328.425 453.5,327.5C 453.667,327.167 453.833,326.833 454,326.5C 457.328,328.331 460.828,329.664 464.5,330.5 Z M 461.5,337.5 C 460.463,344.866 456.463,347.199 449.5,344.5C 446.499,340.35 446.832,336.517 450.5,333C 455.757,330.629 459.424,332.129 461.5,337.5 Z"/></g>
<g><path style="opacity:0.992" fill="#9a3427" d="M 485.5,336.5 C 485.5,341.167 485.5,345.833 485.5,350.5C 484.5,350.5 483.5,350.5 482.5,350.5C 482.291,345.683 482.291,341.016 482.5,336.5C 482.5,332.833 482.5,329.167 482.5,325.5C 484.635,325.147 485.968,325.98 486.5,328C 485.652,330.77 485.319,333.603 485.5,336.5 Z"/></g>
<g><path style="opacity:0.933" fill="#1c1c1c" d="M 117.5,358.5 C 119.604,358.201 121.604,358.534 123.5,359.5C 119.959,360.969 118.959,363.303 120.5,366.5C 118.265,366.205 116.265,366.539 114.5,367.5C 94.8091,372.294 75.1424,372.628 55.5,368.5C 55.8807,367.069 56.8807,366.236 58.5,366C 57.5,365.667 56.5,365.333 55.5,365C 56.9158,362.735 58.9158,361.569 61.5,361.5C 80.3075,363.153 98.9741,362.153 117.5,358.5 Z"/></g>
<g><path style="opacity:0.184" fill="#939393" d="M 234.5,359.5 C 234.573,361.027 233.906,362.027 232.5,362.5C 232.427,360.973 233.094,359.973 234.5,359.5 Z"/></g>
<g><path style="opacity:0.016" fill="#b6b6b6" d="M 298.5,363.5 C 311.323,362.505 324.323,362.171 337.5,362.5C 337.737,363.791 337.404,364.791 336.5,365.5C 324.211,363.52 311.544,362.853 298.5,363.5 Z"/></g>
<g><path style="opacity:0.973" fill="#585858" d="M 336.5,366.5 C 337.155,368.965 336.155,370.965 333.5,372.5C 333.992,370.181 334.992,368.181 336.5,366.5 Z"/></g>
<g><path style="opacity:0.243" fill="#7d7d7d" d="M 328.5,380.5 C 328.5,382.5 327.5,383.5 325.5,383.5C 326.167,382.167 327.167,381.167 328.5,380.5 Z"/></g>
<g><path style="opacity:0.941" fill="#191919" d="M 248.5,355.5 C 247.001,357.164 246.001,359.164 245.5,361.5C 246.32,363.111 247.654,363.778 249.5,363.5C 246.516,364.337 243.682,365.671 241,367.5C 239.699,369.365 239.365,371.365 240,373.5C 253.111,395 272.278,403.834 297.5,400C 301.854,398.486 306.188,396.986 310.5,395.5C 310.004,398.081 310.004,400.747 310.5,403.5C 311.5,403.5 312.5,403.5 313.5,403.5C 284.787,415.322 259.621,409.989 238,387.5C 236.414,384.659 234.58,381.993 232.5,379.5C 231.014,376.706 230.347,373.706 230.5,370.5C 230.287,367.473 230.953,364.807 232.5,362.5C 233.906,362.027 234.573,361.027 234.5,359.5C 238.376,355.936 243.043,354.602 248.5,355.5 Z"/></g>
</svg>
